<svg id="Layer_1" data-name="Layer 1" xmlns="http://www.w3.org/2000/svg" xmlns:xlink="http://www.w3.org/1999/xlink" viewBox="0 0 968.93 455.44"><defs><style>.cls-1{fill:#0a0506;}.cls-2{fill:url(#radial-gradient);}.cls-3{fill:#ffc215;}.cls-4{fill:url(#radial-gradient-4);}.cls-5{fill:url(#radial-gradient-5);}.cls-6{fill:url(#radial-gradient-6);}.cls-7{fill:url(#radial-gradient-7);}.cls-8{fill:url(#radial-gradient-8);}.cls-9{fill:url(#radial-gradient-10);}.cls-10{fill:url(#radial-gradient-11);}.cls-11{fill:url(#radial-gradient-12);}.cls-12{fill:url(#radial-gradient-13);}.cls-13{fill:url(#radial-gradient-14);}.cls-14{fill:url(#radial-gradient-15);}.cls-15{fill:url(#radial-gradient-16);}.cls-16{fill:url(#radial-gradient-17);}.cls-17{fill:url(#radial-gradient-18);}.cls-18{fill:url(#radial-gradient-19);}.cls-19{fill:url(#radial-gradient-20);}.cls-20{fill:url(#radial-gradient-21);}.cls-21{fill:url(#radial-gradient-22);}.cls-22{fill:url(#radial-gradient-23);}.cls-23{fill:url(#radial-gradient-25);}.cls-24{fill:url(#radial-gradient-26);}.cls-25{fill:url(#radial-gradient-27);}.cls-26{fill:url(#radial-gradient-28);}.cls-27{fill:url(#radial-gradient-29);}.cls-28{fill:url(#radial-gradient-30);}.cls-29{fill:url(#radial-gradient-32);}.cls-30{fill:url(#radial-gradient-33);}.cls-31{fill:url(#radial-gradient-36);}.cls-32{fill:url(#radial-gradient-37);}.cls-33{fill:url(#radial-gradient-39);}.cls-34{fill:url(#radial-gradient-40);}.cls-35{fill:url(#radial-gradient-41);}.cls-36{fill:url(#radial-gradient-42);}.cls-37{fill:url(#radial-gradient-43);}.cls-38{fill:url(#radial-gradient-45);}.cls-39{fill:url(#radial-gradient-46);}.cls-40{fill:url(#radial-gradient-47);}.cls-41{fill:url(#radial-gradient-48);}.cls-42{fill:url(#radial-gradient-49);}.cls-43{fill:url(#radial-gradient-50);}.cls-44{fill:url(#radial-gradient-51);}.cls-45{fill:url(#radial-gradient-53);}.cls-46{fill:url(#radial-gradient-54);}.cls-47{fill:url(#radial-gradient-55);}.cls-48{fill:url(#radial-gradient-56);}.cls-49{fill:url(#radial-gradient-57);}.cls-50{fill:url(#radial-gradient-59);}.cls-51{fill:url(#radial-gradient-60);}.cls-52{fill:url(#radial-gradient-61);}.cls-53{fill:url(#radial-gradient-62);}.cls-54{fill:url(#radial-gradient-63);}.cls-55{fill:url(#radial-gradient-65);}.cls-56{fill:url(#radial-gradient-66);}.cls-57{fill:url(#radial-gradient-67);}.cls-58{fill:url(#radial-gradient-68);}.cls-59{fill:url(#radial-gradient-69);}.cls-60{fill:url(#radial-gradient-71);}.cls-61{fill:url(#radial-gradient-72);}.cls-62{fill:url(#radial-gradient-73);}.cls-63{fill:url(#radial-gradient-74);}.cls-64{fill:url(#radial-gradient-75);}.cls-65{fill:url(#radial-gradient-77);}.cls-66{fill:url(#radial-gradient-78);}.cls-67{fill:url(#radial-gradient-79);}.cls-68{fill:url(#radial-gradient-80);}.cls-69{fill:url(#radial-gradient-81);}</style><radialGradient id="radial-gradient" cx="301.04" cy="199.74" r="317.96" gradientUnits="userSpaceOnUse"><stop offset="0.27" stop-color="aqua"/><stop offset="1" stop-color="blue"/></radialGradient><radialGradient id="radial-gradient-4" cx="207.11" cy="480.86" r="686.07" gradientUnits="userSpaceOnUse"><stop offset="0.1" stop-color="aqua"/><stop offset="1" stop-color="blue"/></radialGradient><radialGradient id="radial-gradient-5" cx="202.93" cy="482.96" r="686.07" xlink:href="#radial-gradient"/><radialGradient id="radial-gradient-6" cx="216.91" cy="474.69" r="686.07" xlink:href="#radial-gradient"/><radialGradient id="radial-gradient-7" cx="208.54" cy="480.01" r="686.07" xlink:href="#radial-gradient"/><radialGradient id="radial-gradient-8" cx="218.52" cy="465.46" r="686.07" xlink:href="#radial-gradient"/><radialGradient id="radial-gradient-10" cx="201.03" cy="490.56" r="686.07" xlink:href="#radial-gradient"/><radialGradient id="radial-gradient-11" cx="219" cy="482" r="686.07" xlink:href="#radial-gradient"/><radialGradient id="radial-gradient-12" cx="228.12" cy="476.02" r="686.07" xlink:href="#radial-gradient"/><radialGradient id="radial-gradient-13" cx="216.08" cy="482.33" r="686.07" xlink:href="#radial-gradient"/><radialGradient id="radial-gradient-14" cx="203.31" cy="483.72" r="686.07" xlink:href="#radial-gradient"/><radialGradient id="radial-gradient-15" cx="213.96" cy="473.07" r="686.07" xlink:href="#radial-gradient"/><radialGradient id="radial-gradient-16" cx="209.4" cy="480.29" r="686.07" xlink:href="#radial-gradient"/><radialGradient id="radial-gradient-17" cx="199.13" cy="491.7" r="686.07" xlink:href="#radial-gradient"/><radialGradient id="radial-gradient-18" cx="203.31" cy="478.01" r="686.07" xlink:href="#radial-gradient"/><radialGradient id="radial-gradient-19" cx="224.13" cy="466.32" r="686.07" xlink:href="#radial-gradient"/><radialGradient id="radial-gradient-20" cx="216.47" cy="479.12" r="686.07" xlink:href="#radial-gradient"/><radialGradient id="radial-gradient-21" cx="205.64" cy="485.33" r="686.07" xlink:href="#radial-gradient"/><radialGradient id="radial-gradient-22" cx="202.93" cy="479.15" r="686.07" xlink:href="#radial-gradient"/><radialGradient id="radial-gradient-23" cx="214.34" cy="474.59" r="686.07" xlink:href="#radial-gradient"/><radialGradient id="radial-gradient-25" cx="207.49" cy="489.42" r="686.07" xlink:href="#radial-gradient"/><radialGradient id="radial-gradient-26" cx="215.46" cy="474.38" r="686.07" xlink:href="#radial-gradient"/><radialGradient id="radial-gradient-27" cx="206.73" cy="481.05" r="686.07" xlink:href="#radial-gradient"/><radialGradient id="radial-gradient-28" cx="209.4" cy="471.93" r="686.07" xlink:href="#radial-gradient"/><radialGradient id="radial-gradient-29" cx="203.46" cy="483.73" r="686.07" xlink:href="#radial-gradient"/><radialGradient id="radial-gradient-30" cx="210.54" cy="470.41" r="686.07" xlink:href="#radial-gradient"/><radialGradient id="radial-gradient-32" cx="223.46" cy="461.82" r="686.07" xlink:href="#radial-gradient"/><radialGradient id="radial-gradient-33" cx="211.78" cy="510.73" r="686.07" xlink:href="#radial-gradient"/><radialGradient id="radial-gradient-36" cx="212.44" cy="476.11" r="686.07" xlink:href="#radial-gradient"/><radialGradient id="radial-gradient-37" cx="210.47" cy="472.68" r="686.07" xlink:href="#radial-gradient"/><radialGradient id="radial-gradient-39" cx="210.63" cy="475.74" r="686.07" xlink:href="#radial-gradient"/><radialGradient id="radial-gradient-40" cx="202.93" cy="477.63" r="686.07" xlink:href="#radial-gradient"/><radialGradient id="radial-gradient-41" cx="204.45" cy="483.72" r="686.07" xlink:href="#radial-gradient"/><radialGradient id="radial-gradient-42" cx="209.02" cy="472.69" r="686.07" xlink:href="#radial-gradient"/><radialGradient id="radial-gradient-43" cx="209.67" cy="473.45" r="686.07" xlink:href="#radial-gradient"/><radialGradient id="radial-gradient-45" cx="215.51" cy="493.75" r="686.07" xlink:href="#radial-gradient"/><radialGradient id="radial-gradient-46" cx="226.97" cy="459.17" r="686.07" xlink:href="#radial-gradient"/><radialGradient id="radial-gradient-47" cx="209.02" cy="474.21" r="686.07" xlink:href="#radial-gradient"/><radialGradient id="radial-gradient-48" cx="202.55" cy="489.42" r="686.07" xlink:href="#radial-gradient"/><radialGradient id="radial-gradient-49" cx="211.68" cy="476.87" r="686.07" xlink:href="#radial-gradient"/><radialGradient id="radial-gradient-50" cx="199.89" cy="471.55" r="686.07" xlink:href="#radial-gradient"/><radialGradient id="radial-gradient-51" cx="210.54" cy="485.24" r="686.07" xlink:href="#radial-gradient"/><radialGradient id="radial-gradient-53" cx="207.11" cy="473.07" r="686.07" xlink:href="#radial-gradient"/><radialGradient id="radial-gradient-54" cx="209.4" cy="475.35" r="686.07" xlink:href="#radial-gradient"/><radialGradient id="radial-gradient-55" cx="212.44" cy="486" r="686.07" xlink:href="#radial-gradient"/><radialGradient id="radial-gradient-56" cx="213.58" cy="488.28" r="686.07" xlink:href="#radial-gradient"/><radialGradient id="radial-gradient-57" cx="209.78" cy="470.79" r="686.07" xlink:href="#radial-gradient"/><radialGradient id="radial-gradient-59" cx="213.54" cy="483.08" r="686.07" xlink:href="#radial-gradient"/><radialGradient id="radial-gradient-60" cx="204.83" cy="476.49" r="686.07" xlink:href="#radial-gradient"/><radialGradient id="radial-gradient-61" cx="201.03" cy="476.49" r="686.07" xlink:href="#radial-gradient"/><radialGradient id="radial-gradient-62" cx="212.24" cy="481.45" r="686.07" xlink:href="#radial-gradient"/><radialGradient id="radial-gradient-63" cx="212.34" cy="483.11" r="686.07" xlink:href="#radial-gradient"/><radialGradient id="radial-gradient-65" cx="194.19" cy="483.34" r="686.07" xlink:href="#radial-gradient"/><radialGradient id="radial-gradient-66" cx="207.88" cy="483.34" r="686.07" xlink:href="#radial-gradient"/><radialGradient id="radial-gradient-67" cx="215.48" cy="487.9" r="686.07" xlink:href="#radial-gradient"/><radialGradient id="radial-gradient-68" cx="201.79" cy="476.11" r="686.07" xlink:href="#radial-gradient"/><radialGradient id="radial-gradient-69" cx="210.54" cy="463.94" r="686.07" xlink:href="#radial-gradient"/><radialGradient id="radial-gradient-71" cx="221.49" cy="468.78" r="686.07" xlink:href="#radial-gradient"/><radialGradient id="radial-gradient-72" cx="208.7" cy="482.53" r="686.07" xlink:href="#radial-gradient"/><radialGradient id="radial-gradient-73" cx="196.66" cy="475.16" r="686.07" xlink:href="#radial-gradient"/><radialGradient id="radial-gradient-74" cx="213.48" cy="489.99" r="686.07" xlink:href="#radial-gradient"/><radialGradient id="radial-gradient-75" cx="203.69" cy="480.67" r="686.07" xlink:href="#radial-gradient"/><radialGradient id="radial-gradient-77" cx="221.94" cy="480.58" r="686.07" xlink:href="#radial-gradient"/><radialGradient id="radial-gradient-78" cx="200.65" cy="481.05" r="686.07" xlink:href="#radial-gradient"/><radialGradient id="radial-gradient-79" cx="219.76" cy="480.48" r="686.07" xlink:href="#radial-gradient"/><radialGradient id="radial-gradient-80" cx="204.31" cy="479.85" r="686.07" xlink:href="#radial-gradient"/><radialGradient id="radial-gradient-81" cx="228.79" cy="483.15" r="686.07" xlink:href="#radial-gradient"/></defs><rect class="cls-1" x="-30.51" y="-26.06" width="1029.94" height="507.55"/><path class="cls-2" d="M369.77,215.11V153.7h17.37v47.63h29.21v13.78Z"/><path class="cls-2" d="M449.08,215.9a23.13,23.13,0,0,1-10.4-2.28,16.18,16.18,0,0,1-7.19-7.15q-2.6-4.87-2.59-12.42V167.47h16.67v23.86c0,3.69.68,6.34,2.06,7.94a7.25,7.25,0,0,0,5.83,2.42,9.2,9.2,0,0,0,4.52-1.14,7.6,7.6,0,0,0,3.2-3.65,15.32,15.32,0,0,0,1.14-6.35V167.47H479v47.64H463.2V201.69l3.07,3.77a17.35,17.35,0,0,1-7.15,7.85A20.11,20.11,0,0,1,449.08,215.9Z"/><path class="cls-2" d="M490.74,215.11l21.94-28.69-.44,9.48-20.88-28.43h18.77l11.67,16.85-6.93.35,12.54-17.2H545l-21.05,27.81.08-9.12,21.58,29H526.45l-12.11-17.9,7,1L508.9,215.11Z"/><path class="cls-3" d="M386,301.39V244H363.89v-4h48.69v4h-22.1v57.37Z"/><path class="cls-3" d="M447.41,301.74a24.55,24.55,0,0,1-12.24-3,21.65,21.65,0,0,1-8.33-8.25,23.64,23.64,0,0,1-3-12,24.77,24.77,0,0,1,2.85-12.06,21.2,21.2,0,0,1,7.85-8.2,21.51,21.51,0,0,1,11.23-3,21.81,21.81,0,0,1,11.19,2.9,20.67,20.67,0,0,1,7.8,8.12,24.77,24.77,0,0,1,2.86,12.06,4.13,4.13,0,0,1,0,.57,4.5,4.5,0,0,0,0,.66H427.06v-3.43h38.07l-1.75,1.67a19.14,19.14,0,0,0-2.24-9.61,17.44,17.44,0,0,0-6.28-6.66,17.42,17.42,0,0,0-24.47,6.66,20.22,20.22,0,0,0-2.28,9.7v.79a19.59,19.59,0,0,0,2.5,10,17.6,17.6,0,0,0,6.89,6.75,20.35,20.35,0,0,0,10,2.41,21.09,21.09,0,0,0,8.2-1.58,16.19,16.19,0,0,0,6.45-4.82l2.54,2.89a18.71,18.71,0,0,1-7.5,5.57A25.07,25.07,0,0,1,447.41,301.74Z"/><path class="cls-3" d="M505.92,301.74a23.54,23.54,0,0,1-11.89-3,21.83,21.83,0,0,1-8.24-8.25,25.52,25.52,0,0,1,0-24.12,21.52,21.52,0,0,1,8.24-8.21,23.93,23.93,0,0,1,11.89-2.94,23.53,23.53,0,0,1,10,2.11,17.51,17.51,0,0,1,7.33,6.32L520,266a14.85,14.85,0,0,0-6.14-5.18,20.11,20.11,0,0,0-17.59.75,17.22,17.22,0,0,0-6.66,6.75,22.52,22.52,0,0,0,0,20.27,17.29,17.29,0,0,0,6.66,6.75,20.2,20.2,0,0,0,17.59.75A14.85,14.85,0,0,0,520,291l3.25,2.37a17.58,17.58,0,0,1-7.33,6.32A23.53,23.53,0,0,1,505.92,301.74Z"/><path class="cls-3" d="M565.4,255.24a21.11,21.11,0,0,1,9.78,2.15,15.14,15.14,0,0,1,6.49,6.5A22.51,22.51,0,0,1,584,274.63v26.76h-4.39V275q0-7.71-3.9-11.75t-10.93-4a18.92,18.92,0,0,0-9.3,2.2,14.61,14.61,0,0,0-6,6.14,20.15,20.15,0,0,0-2.07,9.47v24.39H543V236.3h4.38v32l-.78-1.41a17.42,17.42,0,0,1,6.92-8.55A21.39,21.39,0,0,1,565.4,255.24Z"/><path class="cls-3" d="M610.05,301.39V240h22a32.48,32.48,0,0,1,13.25,2.46,19.09,19.09,0,0,1,8.51,7.06,22.24,22.24,0,0,1,0,22.24,18.92,18.92,0,0,1-8.51,7.1,32.48,32.48,0,0,1-13.25,2.46H612.51l2-2.11v22.2Zm4.47-21.93-2-2.19h19.56q9.91,0,15-4.35c3.43-2.89,5.13-7,5.13-12.24s-1.7-9.43-5.13-12.32-8.43-4.34-15-4.34H612.51l2-2.2Z"/><path class="cls-3" d="M696.55,301.74a22.44,22.44,0,0,1-10.18-2.15,15,15,0,0,1-6.62-6.49,22.58,22.58,0,0,1-2.33-10.75V255.6h4.39V282q0,7.72,4,11.76t11.14,4a17.54,17.54,0,0,0,9-2.19,14.62,14.62,0,0,0,5.79-6.19,20.71,20.71,0,0,0,2-9.43V255.6H718v45.79h-4.21V288.67l.61,1.49a17.15,17.15,0,0,1-6.71,8.47A19.81,19.81,0,0,1,696.55,301.74Z"/><path class="cls-3" d="M743.22,301.39V236.3h4.38v65.09Z"/><path class="cls-3" d="M784.27,301.74a33,33,0,0,1-10.66-1.67,20.75,20.75,0,0,1-7.67-4.21l2-3.51a22.53,22.53,0,0,0,7,3.91,27.16,27.16,0,0,0,9.48,1.62q7.18,0,10.35-2.37a7.43,7.43,0,0,0,3.16-6.23,6,6,0,0,0-1.63-4.43,10.71,10.71,0,0,0-4.34-2.5,45.3,45.3,0,0,0-6-1.44c-2.17-.38-4.33-.81-6.5-1.28a26.43,26.43,0,0,1-6-2,11,11,0,0,1-4.34-3.65,10.52,10.52,0,0,1-1.63-6.18,11,11,0,0,1,1.93-6.32,13.39,13.39,0,0,1,5.79-4.51,23.88,23.88,0,0,1,9.65-1.72,31.92,31.92,0,0,1,8.64,1.23,21.91,21.91,0,0,1,7.07,3.25l-2,3.51a18.68,18.68,0,0,0-6.49-3.16,28.16,28.16,0,0,0-7.28-1q-6.67,0-9.79,2.45A7.55,7.55,0,0,0,772,267.7a6.43,6.43,0,0,0,1.62,4.61,10.45,10.45,0,0,0,4.34,2.63,41.32,41.32,0,0,0,6,1.49c2.16.38,4.33.81,6.49,1.27a28.08,28.08,0,0,1,6,2,10.94,10.94,0,0,1,4.34,3.51,10,10,0,0,1,1.62,6,10.76,10.76,0,0,1-2.06,6.57,13.26,13.26,0,0,1-6.1,4.39A27.34,27.34,0,0,1,784.27,301.74Z"/><path class="cls-3" d="M839.8,301.74a24.55,24.55,0,0,1-12.24-3,21.72,21.72,0,0,1-8.33-8.25,23.64,23.64,0,0,1-3-12,24.66,24.66,0,0,1,2.86-12.06,21.06,21.06,0,0,1,7.85-8.2,21.46,21.46,0,0,1,11.23-3,21.74,21.74,0,0,1,11.18,2.9,20.7,20.7,0,0,1,7.81,8.12A24.77,24.77,0,0,1,860,278.32c0,.17,0,.36,0,.57a4.43,4.43,0,0,0-.05.66H819.45v-3.43h38.07l-1.75,1.67a19,19,0,0,0-2.24-9.61,17.49,17.49,0,0,0-6.27-6.66,17.42,17.42,0,0,0-24.48,6.66,20.22,20.22,0,0,0-2.28,9.7v.79a19.69,19.69,0,0,0,2.5,10,17.6,17.6,0,0,0,6.89,6.75,20.38,20.38,0,0,0,10,2.41,21.09,21.09,0,0,0,8.2-1.58,16.05,16.05,0,0,0,6.45-4.82l2.54,2.89a18.64,18.64,0,0,1-7.5,5.57A25.07,25.07,0,0,1,839.8,301.74Z"/><path class="cls-4" d="M216.85,173.56a4.64,4.64,0,1,0,5.67,3.29A4.64,4.64,0,0,0,216.85,173.56Z"/><path class="cls-5" d="M206.7,167.24a3.6,3.6,0,1,0,2.55-4.4A3.6,3.6,0,0,0,206.7,167.24Z"/><path class="cls-6" d="M220.68,159a3.59,3.59,0,1,0,2.55-4.4A3.59,3.59,0,0,0,220.68,159Z"/><path class="cls-7" d="M208.9,149.77a3.15,3.15,0,1,0,2.24-3.86A3.15,3.15,0,0,0,208.9,149.77Z"/><path class="cls-8" d="M218.88,135.23a3.16,3.16,0,1,0,2.24-3.86A3.15,3.15,0,0,0,218.88,135.23Z"/><path class="cls-7" d="M205.29,135.13a2.88,2.88,0,1,0,2-3.52A2.87,2.87,0,0,0,205.29,135.13Z"/><path class="cls-9" d="M197.35,132.89a2.14,2.14,0,1,0-2.62-1.52A2.15,2.15,0,0,0,197.35,132.89Z"/><path class="cls-10" d="M215.32,124.34a2.15,2.15,0,1,0-2.63-1.52A2.16,2.16,0,0,0,215.32,124.34Z"/><path class="cls-11" d="M224.44,118.35a2.15,2.15,0,1,0-2.62-1.52A2.14,2.14,0,0,0,224.44,118.35Z"/><path class="cls-12" d="M208.45,109.83a1.35,1.35,0,1,0-1.66-1A1.37,1.37,0,0,0,208.45,109.83Z"/><path class="cls-13" d="M197,176.62a3.59,3.59,0,1,0-4.91-1.33A3.59,3.59,0,0,0,197,176.62Z"/><path class="cls-14" d="M200,152.66a3.15,3.15,0,1,0-4.3-1.17A3.16,3.16,0,0,0,200,152.66Z"/><path class="cls-15" d="M187.82,146.57a2.88,2.88,0,1,0-3.92-1.07A2.88,2.88,0,0,0,187.82,146.57Z"/><path class="cls-16" d="M169.92,144.66a2.14,2.14,0,1,0-2.92-.8A2.15,2.15,0,0,0,169.92,144.66Z"/><path class="cls-17" d="M174.11,131a2.15,2.15,0,1,0-2.93-.79A2.15,2.15,0,0,0,174.11,131Z"/><path class="cls-18" d="M194.92,119.28a2.14,2.14,0,1,0-2.92-.8A2.15,2.15,0,0,0,194.92,119.28Z"/><path class="cls-19" d="M179.63,118.76a1.35,1.35,0,1,0-1.85-.5A1.36,1.36,0,0,0,179.63,118.76Z"/><path class="cls-20" d="M197.74,192.18a4.64,4.64,0,1,0,0,6.56A4.64,4.64,0,0,0,197.74,192.18Z"/><path class="cls-21" d="M179.15,176.55a3.59,3.59,0,1,0,5.08,0A3.6,3.6,0,0,0,179.15,176.55Z"/><path class="cls-22" d="M184.81,166.19a3.15,3.15,0,1,0-4.46,0A3.17,3.17,0,0,0,184.81,166.19Z"/><path class="cls-15" d="M169.06,161a2.88,2.88,0,1,0-4.07,0A2.88,2.88,0,0,0,169.06,161Z"/><path class="cls-23" d="M156.36,159.21a2.14,2.14,0,1,0-3,0A2.15,2.15,0,0,0,156.36,159.21Z"/><path class="cls-24" d="M151.61,131.34a1.36,1.36,0,1,0,1.92,0A1.37,1.37,0,0,0,151.61,131.34Z"/><path class="cls-25" d="M173.55,197.32a3.59,3.59,0,1,0-1.28-4.92A3.6,3.6,0,0,0,173.55,197.32Z"/><path class="cls-26" d="M163.57,180.27a3.15,3.15,0,1,0-1.12-4.31A3.16,3.16,0,0,0,163.57,180.27Z"/><path class="cls-27" d="M144.77,184.22a2.88,2.88,0,1,0-1-3.94A2.89,2.89,0,0,0,144.77,184.22Z"/><path class="cls-28" d="M139.6,162.88a2.14,2.14,0,1,0-.76-2.94A2.15,2.15,0,0,0,139.6,162.88Z"/><path class="cls-15" d="M126.3,164.72a1.35,1.35,0,0,0,1.85-.48,1.36,1.36,0,1,0-1.85.48Z"/><path class="cls-29" d="M140.36,146.25a1.36,1.36,0,1,0-.48-1.85A1.35,1.35,0,0,0,140.36,146.25Z"/><path class="cls-30" d="M186.6,247.53a4.64,4.64,0,1,0-3.23-5.7A4.64,4.64,0,0,0,186.6,247.53Z"/><path class="cls-15" d="M168.2,207.86a3.6,3.6,0,1,0,4.42-2.5A3.59,3.59,0,0,0,168.2,207.86Z"/><path class="cls-15" d="M158.13,201.81a3.15,3.15,0,1,0,2.2,3.88A3.15,3.15,0,0,0,158.13,201.81Z"/><path class="cls-31" d="M143,195.88a2.88,2.88,0,1,0,3.54-2A2.88,2.88,0,0,0,143,195.88Z"/><path class="cls-32" d="M130.32,187.26a2.14,2.14,0,1,0,1.5,2.64A2.16,2.16,0,0,0,130.32,187.26Z"/><path class="cls-15" d="M115,191.75a1.36,1.36,0,1,0,1,1.67A1.36,1.36,0,0,0,115,191.75Z"/><path class="cls-33" d="M180.36,220.84a4.64,4.64,0,1,0,4.68-4.59A4.65,4.65,0,0,0,180.36,220.84Z"/><path class="cls-34" d="M159.41,222.61a3.59,3.59,0,1,0,3.62-3.56A3.58,3.58,0,0,0,159.41,222.61Z"/><path class="cls-35" d="M149.58,231.74a3.16,3.16,0,1,0-3.12-3.18A3.15,3.15,0,0,0,149.58,231.74Z"/><path class="cls-36" d="M139.07,220.29a2.88,2.88,0,1,0-2.85-2.9A2.88,2.88,0,0,0,139.07,220.29Z"/><path class="cls-37" d="M127.28,218.06a2.15,2.15,0,1,0-2.16,2.12A2.14,2.14,0,0,0,127.28,218.06Z"/><path class="cls-15" d="M110.32,223.39a1.37,1.37,0,0,0-1.37,1.35,1.36,1.36,0,1,0,1.37-1.35Z"/><path class="cls-38" d="M116.43,236.84a1.36,1.36,0,0,0,0,2.72,1.36,1.36,0,0,0,0-2.72Z"/><path class="cls-39" d="M127.89,202.27a1.36,1.36,0,1,0,1.34,1.37A1.35,1.35,0,0,0,127.89,202.27Z"/><path class="cls-40" d="M174.68,234.82a3.59,3.59,0,1,0-2.59,4.38A3.59,3.59,0,0,0,174.68,234.82Z"/><path class="cls-41" d="M149.51,251.57a3.15,3.15,0,1,0,3.83,2.27A3.14,3.14,0,0,0,149.51,251.57Z"/><path class="cls-42" d="M158.63,239a3.15,3.15,0,1,0,3.84,2.28A3.16,3.16,0,0,0,158.63,239Z"/><path class="cls-43" d="M135.81,239.78a2.88,2.88,0,1,0-2.07,3.5A2.87,2.87,0,0,0,135.81,239.78Z"/><path class="cls-44" d="M129,255.74a2.14,2.14,0,1,0,2.61,1.54A2.14,2.14,0,0,0,129,255.74Z"/><path class="cls-15" d="M113.93,255.17a1.36,1.36,0,1,0,1.65,1A1.36,1.36,0,0,0,113.93,255.17Z"/><path class="cls-45" d="M173.83,246.84a3.59,3.59,0,1,0,4.89,1.37A3.59,3.59,0,0,0,173.83,246.84Z"/><path class="cls-46" d="M166.4,262.29a3.15,3.15,0,1,0-4.29-1.2A3.15,3.15,0,0,0,166.4,262.29Z"/><path class="cls-47" d="M157.27,276.16a2.88,2.88,0,1,0-1.11,3.91A2.87,2.87,0,0,0,157.27,276.16Z"/><path class="cls-48" d="M142.1,285.13A2.14,2.14,0,1,0,145,286,2.14,2.14,0,0,0,142.1,285.13Z"/><path class="cls-49" d="M138.3,267.63a2.14,2.14,0,1,0,2.92.83A2.15,2.15,0,0,0,138.3,267.63Z"/><path class="cls-15" d="M125.6,285a1.35,1.35,0,1,0,1.85.52A1.37,1.37,0,0,0,125.6,285Z"/><path class="cls-50" d="M205.54,266.6a4.64,4.64,0,1,0-6.56-.1A4.63,4.63,0,0,0,205.54,266.6Z"/><path class="cls-51" d="M180.84,264.08a3.59,3.59,0,1,0,5.08.07A3.59,3.59,0,0,0,180.84,264.08Z"/><path class="cls-52" d="M166.65,274.79a3.15,3.15,0,1,0,4.46.06A3.14,3.14,0,0,0,166.65,274.79Z"/><path class="cls-53" d="M167.24,290.45a2.87,2.87,0,1,0,4.07.06A2.89,2.89,0,0,0,167.24,290.45Z"/><path class="cls-54" d="M157.37,302.82a2.15,2.15,0,1,0,3,0A2.15,2.15,0,0,0,157.37,302.82Z"/><path class="cls-15" d="M144.54,310.72a1.36,1.36,0,1,0,1.92,0A1.36,1.36,0,0,0,144.54,310.72Z"/><path class="cls-55" d="M188.89,285.57a3.59,3.59,0,1,0-4.93,1.24A3.58,3.58,0,0,0,188.89,285.57Z"/><path class="cls-56" d="M193.46,293.82a3.15,3.15,0,1,0,1.09,4.32A3.14,3.14,0,0,0,193.46,293.82Z"/><path class="cls-57" d="M193.18,311.55a2.88,2.88,0,1,0,1,3.95A2.88,2.88,0,0,0,193.18,311.55Z"/><path class="cls-58" d="M171.61,312.94a2.14,2.14,0,1,0,.74,2.94A2.15,2.15,0,0,0,171.61,312.94Z"/><path class="cls-59" d="M180.36,300.77a2.14,2.14,0,0,0-2.2,3.68,2.14,2.14,0,0,0,2.2-3.68Z"/><path class="cls-15" d="M171.34,330.29a1.35,1.35,0,1,0,.46,1.86A1.34,1.34,0,0,0,171.34,330.29Z"/><path class="cls-60" d="M183.43,318.78a1.36,1.36,0,1,0,.47,1.86A1.35,1.35,0,0,0,183.43,318.78Z"/><path class="cls-61" d="M220.84,271.23A4.63,4.63,0,1,0,224,277,4.63,4.63,0,0,0,220.84,271.23Z"/><path class="cls-62" d="M204.57,278.61a3.59,3.59,0,1,0,2.47,4.44A3.6,3.6,0,0,0,204.57,278.61Z"/><path class="cls-63" d="M221.4,293.44a3.59,3.59,0,1,0,2.46,4.44A3.59,3.59,0,0,0,221.4,293.44Z"/><path class="cls-64" d="M207.38,298.88a3.15,3.15,0,1,0,2.16,3.9A3.16,3.16,0,0,0,207.38,298.88Z"/><path class="cls-15" d="M208.86,313.26a2.88,2.88,0,1,0,2,3.55A2.87,2.87,0,0,0,208.86,313.26Z"/><path class="cls-65" d="M221.4,313.54a2.88,2.88,0,1,0,2,3.56A2.87,2.87,0,0,0,221.4,313.54Z"/><path class="cls-66" d="M195.88,328.77a2.14,2.14,0,1,0,1.47,2.65A2.15,2.15,0,0,0,195.88,328.77Z"/><path class="cls-67" d="M215,328.2a2.14,2.14,0,1,0,1.47,2.65A2.14,2.14,0,0,0,215,328.2Z"/><path class="cls-68" d="M195.31,342.33a1.35,1.35,0,1,0,.93,1.67A1.34,1.34,0,0,0,195.31,342.33Z"/><path class="cls-69" d="M219.79,345.62a1.34,1.34,0,0,0-1.67.93,1.35,1.35,0,1,0,1.67-.93Z"/><path class="cls-15" d="M233.12,122.26v53.43a49.69,49.69,0,0,1,42.21,75.62v24.44H250.6v24.42H233.12v28.48a103.44,103.44,0,0,0,15.54-1.21V313.71h24.73v6.67a104,104,0,0,0,14.87-7.88V296h19.9a103.16,103.16,0,0,0-75-173.72ZM316.83,270H292.09V245.26h24.74Z"/></svg>