<?xml version="1.0" encoding="utf-8"?>
<!-- Generator: Adobe Illustrator 26.3.1, SVG Export Plug-In . SVG Version: 6.00 Build 0)  -->
<svg version="1.1" id="Layer_1" xmlns="http://www.w3.org/2000/svg" xmlns:xlink="http://www.w3.org/1999/xlink" x="0px" y="0px"
	 viewBox="0 0 396 396" style="enable-background:new 0 0 396 396;" xml:space="preserve">
<style type="text/css">
	.st0{fill:#0A0506;}
	.st1{fill:url(#SVGID_1_);}
	.st2{fill:url(#SVGID_00000063625062088379722120000015427590471426490039_);}
	.st3{fill:url(#SVGID_00000152970967821535567810000004900723707248362943_);}
	.st4{fill:url(#SVGID_00000124138493365103364530000013798359216752909715_);}
	.st5{fill:url(#SVGID_00000140699266789266127730000007845748896468816789_);}
	.st6{fill:url(#SVGID_00000155110892904944139470000016988484721792083333_);}
	.st7{fill:url(#SVGID_00000104706682915833634140000002093239734405389983_);}
	.st8{fill:url(#SVGID_00000056400975304587643530000009612507861399949485_);}
	.st9{fill:url(#SVGID_00000047057881555796593880000014920248904934385818_);}
	.st10{fill:url(#SVGID_00000132783389595378790450000012914034094204606852_);}
	.st11{fill:url(#SVGID_00000121998553212662922010000012450236438204297365_);}
	.st12{fill:url(#SVGID_00000141434501743866445340000003328711318448037009_);}
	.st13{fill:url(#SVGID_00000163071775236932298620000007346199560679959965_);}
	.st14{fill:url(#SVGID_00000016767481111395688660000015319501996903677612_);}
	.st15{fill:url(#SVGID_00000084501087530208159190000004387510073110021786_);}
	.st16{fill:url(#SVGID_00000129193461781693958320000000155410155966508188_);}
	.st17{fill:url(#SVGID_00000169538551460178469400000000288323888035410074_);}
	.st18{fill:url(#SVGID_00000039126380259197808790000013208410815609404551_);}
	.st19{fill:url(#SVGID_00000016773881260720201050000011304834031046241470_);}
	.st20{fill:url(#SVGID_00000063625361271552357120000006863990222617615796_);}
	.st21{fill:url(#SVGID_00000080178676220581365120000000943011056086099625_);}
	.st22{fill:url(#SVGID_00000030478584025035849320000008935641489346946696_);}
	.st23{fill:url(#SVGID_00000160906643574792666340000007312759345468048042_);}
	.st24{fill:url(#SVGID_00000016761339709222808210000011476763591864457379_);}
	.st25{fill:url(#SVGID_00000114776572057627750490000011436839696288439706_);}
	.st26{fill:url(#SVGID_00000162325933928392989920000015355463341904733319_);}
	.st27{fill:url(#SVGID_00000031901026168969250070000001198753008626667665_);}
	.st28{fill:url(#SVGID_00000173127887595411576680000005113773531367371930_);}
	.st29{fill:url(#SVGID_00000173846092193276914480000001966099931310260143_);}
	.st30{fill:url(#SVGID_00000132047427117407880430000008435252356782063542_);}
	.st31{fill:url(#SVGID_00000129163352531506641950000007601600372896766849_);}
	.st32{fill:url(#SVGID_00000181068770730247311110000002555892358284302748_);}
	.st33{fill:url(#SVGID_00000110440715775447688680000016345958678674771891_);}
	.st34{fill:url(#SVGID_00000021836883325523706390000004244603878360249237_);}
	.st35{fill:url(#SVGID_00000082325954613892923600000015478329270561579438_);}
	.st36{fill:url(#SVGID_00000156556864747446320700000013277714621230381957_);}
	.st37{fill:url(#SVGID_00000014592596414011937230000002609127745800068501_);}
	.st38{fill:url(#SVGID_00000158011590608068503310000005256445429068764813_);}
	.st39{fill:url(#SVGID_00000053519436991544045290000004310324405208364198_);}
	.st40{fill:url(#SVGID_00000114037022824587514240000018431509495217295256_);}
	.st41{fill:url(#SVGID_00000153706283900649610960000010360514127794494600_);}
	.st42{fill:url(#SVGID_00000070108642413129715630000002306100726446863259_);}
	.st43{fill:url(#SVGID_00000132073405796660449510000006261239085950739129_);}
	.st44{fill:url(#SVGID_00000069379202350257171090000009390647487840703404_);}
	.st45{fill:url(#SVGID_00000062175942435834618230000010122953702630311351_);}
	.st46{fill:url(#SVGID_00000179612029386049267820000010372900205758592190_);}
	.st47{fill:url(#SVGID_00000070810883038143207980000000637184445395487140_);}
	.st48{fill:url(#SVGID_00000106116507240820819980000008245550408880239803_);}
	.st49{fill:url(#SVGID_00000044169529255243031770000006469626827029780665_);}
	.st50{fill:url(#SVGID_00000006685317530418808320000014801861125646659248_);}
	.st51{fill:url(#SVGID_00000105423111017983415060000001116810688332997052_);}
	.st52{fill:url(#SVGID_00000144313826828627446210000001732213986862015137_);}
	.st53{fill:url(#SVGID_00000137131722965835015760000016835722277112437901_);}
	.st54{fill:url(#SVGID_00000024723486922894199340000003108821326202615469_);}
	.st55{fill:url(#SVGID_00000025437784097088525810000013676757810497915824_);}
	.st56{fill:url(#SVGID_00000034052547400015913670000004352343440883781266_);}
	.st57{fill:url(#SVGID_00000111871030542084700650000009927395056861230761_);}
	.st58{fill:url(#SVGID_00000098900349167650126190000009898929037611652537_);}
	.st59{fill:url(#SVGID_00000080204299302721473810000006141783467738763176_);}
	.st60{fill:url(#SVGID_00000097465179593328333470000017846005520613236918_);}
	.st61{fill:url(#SVGID_00000040536976137404962130000013911932455889710233_);}
	.st62{fill:url(#SVGID_00000123438975226972099840000008472306531583071362_);}
	.st63{fill:url(#SVGID_00000055703076250026857190000016441536626976809650_);}
	.st64{fill:url(#SVGID_00000009579385976960695130000008208305113601309075_);}
	.st65{fill:url(#SVGID_00000116214197500176614470000011602260064830622605_);}
	.st66{fill:url(#SVGID_00000054971840940926896030000011919882143352168334_);}
	.st67{fill:url(#SVGID_00000145040240123825829230000009473219744903591089_);}
	.st68{fill:url(#SVGID_00000155852516948404401260000017966765580627083930_);}
	.st69{fill:url(#SVGID_00000168826299221032922930000010397637913899316662_);}
	.st70{fill:url(#SVGID_00000009583070332246828490000007308900080015326854_);}
	.st71{fill:url(#SVGID_00000107588162111975743730000006721569492111156386_);}
	.st72{fill:url(#SVGID_00000148634352376767400390000013641229348795763877_);}
	.st73{fill:url(#SVGID_00000178187975050517361310000017980109158273879168_);}
	.st74{fill:url(#SVGID_00000162333500202406815130000009228651291290440854_);}
	.st75{fill:url(#SVGID_00000026853072047712899340000003447467387642795944_);}
	.st76{fill:url(#SVGID_00000051348952403041085040000013234643879932204983_);}
	.st77{fill:url(#SVGID_00000150822098016051637260000001131714616582422915_);}
	.st78{fill:url(#SVGID_00000052076196583691189760000006954607959824592523_);}
	.st79{fill:url(#SVGID_00000011020083760276919480000008331139600088714637_);}
	.st80{fill:none;}
	.st81{fill:none;stroke:#3A7BD7;stroke-miterlimit:10;}
	.st82{fill:none;stroke:#FFFFFF;stroke-miterlimit:10;}
	.st83{fill:none;stroke:#8129FF;stroke-miterlimit:10;}
	.st84{fill:none;stroke:#00F9FF;stroke-miterlimit:10;}
	.st85{fill:#3A7BD7;}
	.st86{fill:#005584;}
	.st87{fill:#5C92EC;}
	.st88{fill:#60D1F4;}
	.st89{fill:#B0F7F4;}
	.st90{fill:#005899;}
	.st91{fill:#0F3047;}
	.st92{fill:#0057A3;}
	.st93{fill:#2E9ED8;}
	.st94{fill:#5DCDF1;}
	.st95{fill:#DE98EB;}
	.st96{fill:#338FBB;}
	.st97{fill:#0061BA;}
	.st98{fill:#955FAB;}
	.st99{fill:#333D79;}
	.st100{fill:#4993A0;}
	.st101{fill:#1D3840;}
	.st102{fill:#1471A8;}
	.st103{fill:#EDFDFE;}
	.st104{fill:#E6AEDC;}
	.st105{fill:#8F1AFF;}
	.st106{fill:#FF5FEC;}
	.st107{fill:#7F61FF;}
	.st108{fill:#3E92B1;}
	.st109{fill:#275868;}
	.st110{fill:#002854;}
	.st111{fill:#FFFFFF;}
	.st112{fill:#008DE2;}
	.st113{fill:#606CC0;}
	.st114{fill:#002D5A;}
	.st115{fill:#195F86;}
	.st116{fill:#0F2A37;}
	.st117{fill:#245262;}
	.st118{fill:#244C55;}
	.st119{fill:#004B77;}
	.st120{fill:#05598B;}
	.st121{fill:#234A58;}
	.st122{fill:#10496B;}
	.st123{fill:#D3F9F6;}
	.st124{fill:#2D6B84;}
	.st125{fill:#F4EAF7;}
	.st126{fill:#5C90E8;}
	.st127{fill:#616EC6;}
	.st128{fill:#0B81DC;}
	.st129{fill:#033357;}
	.st130{fill:#1E4855;}
	.st131{fill:#204B57;}
	.st132{fill:#DD7ACA;}
	.st133{fill:#002042;}
	.st134{fill:#1C3B44;}
	.st135{fill:#04639B;}
	.st136{fill:#003C79;}
	.st137{fill:#34B0EF;}
	.st138{fill:#164155;}
	.st139{fill:#133E59;}
	.st140{fill:#274F53;}
	.st141{fill:#1B668B;}
	.st142{fill:#255F7B;}
	.st143{fill:#3D8494;}
	.st144{fill:#5891E9;}
	.st145{fill:#5D91E9;}
	.st146{fill:#163445;}
	.st147{fill:#2E697F;}
	.st148{fill:#296881;}
	.st149{fill:#54C0F2;}
	.st150{fill:#007EC1;}
	.st151{fill:#275560;}
	.st152{fill:#007EC2;}
	.st153{fill:#333B74;}
	.st154{fill:#255B71;}
	.st155{fill:#0077C2;}
	.st156{fill:#316772;}
	.st157{fill:#1D719F;}
	.st158{fill:#244546;}
	.st159{fill:#266B92;}
	.st160{fill:#041F37;}
</style>
<rect x="-8.08" y="-8.08" width="412.17" height="412.17"/>
<g>
	<radialGradient id="SVGID_1_" cx="181.4344" cy="470.489" r="738.5009" gradientUnits="userSpaceOnUse">
		<stop  offset="0.0952" style="stop-color:#00FFFF"/>
		<stop  offset="1" style="stop-color:#0000FF"/>
	</radialGradient>
	<path class="st1" d="M191.91,139.71c-2.66,0.71-4.25,3.44-3.54,6.11c0.71,2.66,3.44,4.25,6.11,3.54c2.66-0.71,4.25-3.44,3.54-6.11
		C197.31,140.58,194.57,139,191.91,139.71z"/>
	
		<radialGradient id="SVGID_00000102512985808822130610000008717827098558169520_" cx="176.9321" cy="472.7402" r="738.5009" gradientUnits="userSpaceOnUse">
		<stop  offset="0.2672" style="stop-color:#00FFFF"/>
		<stop  offset="1" style="stop-color:#0000FF"/>
	</radialGradient>
	<path style="fill:url(#SVGID_00000102512985808822130610000008717827098558169520_);" d="M180.99,132.89
		c0.55,2.06,2.67,3.29,4.73,2.74c2.06-0.55,3.29-2.67,2.74-4.73c-0.55-2.06-2.67-3.29-4.73-2.74
		C181.67,128.71,180.44,130.83,180.99,132.89z"/>
	
		<radialGradient id="SVGID_00000152246986335120343090000001566812916649897901_" cx="191.974" cy="463.8378" r="738.5009" gradientUnits="userSpaceOnUse">
		<stop  offset="0.2672" style="stop-color:#00FFFF"/>
		<stop  offset="1" style="stop-color:#0000FF"/>
	</radialGradient>
	<path style="fill:url(#SVGID_00000152246986335120343090000001566812916649897901_);" d="M196.03,123.99
		c0.55,2.06,2.67,3.29,4.73,2.74c2.06-0.55,3.29-2.67,2.74-4.73c-0.55-2.06-2.67-3.29-4.73-2.74
		C196.71,119.81,195.49,121.93,196.03,123.99z"/>
	
		<radialGradient id="SVGID_00000138546005921630721310000004711460945614500741_" cx="182.9693" cy="469.5681" r="738.5009" gradientUnits="userSpaceOnUse">
		<stop  offset="0.2672" style="stop-color:#00FFFF"/>
		<stop  offset="1" style="stop-color:#0000FF"/>
	</radialGradient>
	<path style="fill:url(#SVGID_00000138546005921630721310000004711460945614500741_);" d="M183.36,114.09
		c0.48,1.81,2.34,2.89,4.15,2.41c1.81-0.48,2.89-2.34,2.41-4.15c-0.48-1.81-2.34-2.89-4.15-2.41
		C183.95,110.42,182.88,112.28,183.36,114.09z"/>
	
		<radialGradient id="SVGID_00000167371590056037682590000012178328408815363222_" cx="193.7135" cy="453.9122" r="738.5009" gradientUnits="userSpaceOnUse">
		<stop  offset="0.2672" style="stop-color:#00FFFF"/>
		<stop  offset="1" style="stop-color:#0000FF"/>
	</radialGradient>
	<path style="fill:url(#SVGID_00000167371590056037682590000012178328408815363222_);" d="M194.1,98.44
		c0.48,1.81,2.34,2.89,4.15,2.41c1.81-0.48,2.89-2.34,2.41-4.15c-0.48-1.81-2.34-2.89-4.15-2.41
		C194.7,94.77,193.62,96.63,194.1,98.44z"/>
	
		<radialGradient id="SVGID_00000118356572832243555970000015817333160893227174_" cx="182.9693" cy="469.5681" r="738.5009" gradientUnits="userSpaceOnUse">
		<stop  offset="0.2672" style="stop-color:#00FFFF"/>
		<stop  offset="1" style="stop-color:#0000FF"/>
	</radialGradient>
	<path style="fill:url(#SVGID_00000118356572832243555970000015817333160893227174_);" d="M179.47,98.34
		c0.44,1.65,2.14,2.64,3.79,2.2c1.65-0.44,2.64-2.14,2.2-3.79c-0.44-1.65-2.14-2.64-3.79-2.2
		C180.01,94.99,179.03,96.68,179.47,98.34z"/>
	
		<radialGradient id="SVGID_00000127007254264547000080000014532882897789223595_" cx="174.8856" cy="480.9262" r="738.5009" gradientUnits="userSpaceOnUse">
		<stop  offset="0.2672" style="stop-color:#00FFFF"/>
		<stop  offset="1" style="stop-color:#0000FF"/>
	</radialGradient>
	<path style="fill:url(#SVGID_00000127007254264547000080000014532882897789223595_);" d="M170.92,95.92
		c1.23-0.33,1.96-1.59,1.64-2.82c-0.33-1.23-1.59-1.96-2.82-1.64c-1.23,0.33-1.96,1.59-1.64,2.82
		C168.43,95.52,169.69,96.25,170.92,95.92z"/>
	
		<radialGradient id="SVGID_00000158741955475669281690000000701415173082106032_" cx="194.2251" cy="471.7169" r="738.5009" gradientUnits="userSpaceOnUse">
		<stop  offset="0.2672" style="stop-color:#00FFFF"/>
		<stop  offset="1" style="stop-color:#0000FF"/>
	</radialGradient>
	<path style="fill:url(#SVGID_00000158741955475669281690000000701415173082106032_);" d="M190.26,86.72
		c1.23-0.33,1.96-1.59,1.64-2.82c-0.33-1.23-1.59-1.96-2.82-1.64c-1.23,0.33-1.96,1.59-1.64,2.82
		C187.77,86.31,189.03,87.04,190.26,86.72z"/>
	
		<radialGradient id="SVGID_00000109708886177705415770000006261664248050490540_" cx="204.0484" cy="465.2704" r="738.5009" gradientUnits="userSpaceOnUse">
		<stop  offset="0.2672" style="stop-color:#00FFFF"/>
		<stop  offset="1" style="stop-color:#0000FF"/>
	</radialGradient>
	<path style="fill:url(#SVGID_00000109708886177705415770000006261664248050490540_);" d="M200.09,80.27
		c1.23-0.33,1.96-1.59,1.64-2.82c-0.33-1.23-1.59-1.96-2.82-1.64c-1.23,0.33-1.96,1.59-1.64,2.82
		C197.59,79.86,198.85,80.6,200.09,80.27z"/>
	
		<radialGradient id="SVGID_00000065039582645577448790000002255269953777061049_" cx="191.0881" cy="472.0659" r="738.5009" gradientUnits="userSpaceOnUse">
		<stop  offset="0.2672" style="stop-color:#00FFFF"/>
		<stop  offset="1" style="stop-color:#0000FF"/>
	</radialGradient>
	<path style="fill:url(#SVGID_00000065039582645577448790000002255269953777061049_);" d="M182.88,71.1
		c0.78-0.21,1.24-1.01,1.03-1.79c-0.21-0.78-1.01-1.24-1.79-1.03c-0.78,0.21-1.24,1.01-1.03,1.79
		C181.3,70.84,182.1,71.31,182.88,71.1z"/>
	
		<radialGradient id="SVGID_00000148660157172427591940000006883731524023057063_" cx="177.3414" cy="473.5588" r="738.5009" gradientUnits="userSpaceOnUse">
		<stop  offset="0.2672" style="stop-color:#00FFFF"/>
		<stop  offset="1" style="stop-color:#0000FF"/>
	</radialGradient>
	<path style="fill:url(#SVGID_00000148660157172427591940000006883731524023057063_);" d="M170.55,143
		c1.85-1.06,2.49-3.42,1.43-5.28c-1.06-1.85-3.42-2.49-5.28-1.43c-1.85,1.06-2.49,3.42-1.43,5.28
		C166.34,143.42,168.7,144.06,170.55,143z"/>
	
		<radialGradient id="SVGID_00000079473575528263367530000018005667944980182420_" cx="188.8019" cy="462.0983" r="738.5009" gradientUnits="userSpaceOnUse">
		<stop  offset="0.2672" style="stop-color:#00FFFF"/>
		<stop  offset="1" style="stop-color:#0000FF"/>
	</radialGradient>
	<path style="fill:url(#SVGID_00000079473575528263367530000018005667944980182420_);" d="M173.8,117.2
		c1.63-0.93,2.19-3.01,1.26-4.63c-0.93-1.63-3.01-2.19-4.63-1.26c-1.63,0.93-2.19,3.01-1.26,4.63
		C170.1,117.57,172.17,118.13,173.8,117.2z"/>
	
		<radialGradient id="SVGID_00000124140170722962963200000015334948700195167386_" cx="183.8902" cy="469.8751" r="738.5009" gradientUnits="userSpaceOnUse">
		<stop  offset="0.2672" style="stop-color:#00FFFF"/>
		<stop  offset="1" style="stop-color:#0000FF"/>
	</radialGradient>
	<path style="fill:url(#SVGID_00000124140170722962963200000015334948700195167386_);" d="M160.67,110.65
		c1.48-0.85,2-2.74,1.15-4.23c-0.85-1.48-2.74-2-4.23-1.15c-1.48,0.85-2,2.74-1.15,4.23C157.29,110.98,159.19,111.5,160.67,110.65z"
		/>
	
		<radialGradient id="SVGID_00000168075175663141629730000016456484022085082783_" cx="172.8391" cy="482.1541" r="738.5009" gradientUnits="userSpaceOnUse">
		<stop  offset="0.2672" style="stop-color:#00FFFF"/>
		<stop  offset="1" style="stop-color:#0000FF"/>
	</radialGradient>
	<path style="fill:url(#SVGID_00000168075175663141629730000016456484022085082783_);" d="M141.4,108.59
		c1.11-0.63,1.49-2.04,0.85-3.15c-0.63-1.11-2.04-1.49-3.15-0.85c-1.11,0.63-1.49,2.04-0.85,3.15
		C138.89,108.84,140.3,109.22,141.4,108.59z"/>
	
		<radialGradient id="SVGID_00000108289227024844343780000017380590675582965691_" cx="177.3414" cy="467.4192" r="738.5009" gradientUnits="userSpaceOnUse">
		<stop  offset="0.2672" style="stop-color:#00FFFF"/>
		<stop  offset="1" style="stop-color:#0000FF"/>
	</radialGradient>
	<path style="fill:url(#SVGID_00000108289227024844343780000017380590675582965691_);" d="M145.9,93.85
		c1.11-0.63,1.49-2.04,0.85-3.15c-0.63-1.11-2.04-1.49-3.15-0.85c-1.11,0.63-1.49,2.04-0.85,3.15
		C143.39,94.11,144.8,94.49,145.9,93.85z"/>
	
		<radialGradient id="SVGID_00000132075851494182295340000013463856249248414878_" cx="199.7507" cy="454.8332" r="738.5009" gradientUnits="userSpaceOnUse">
		<stop  offset="0.2672" style="stop-color:#00FFFF"/>
		<stop  offset="1" style="stop-color:#0000FF"/>
	</radialGradient>
	<path style="fill:url(#SVGID_00000132075851494182295340000013463856249248414878_);" d="M168.31,81.27
		c1.11-0.63,1.49-2.04,0.85-3.15c-0.63-1.11-2.04-1.49-3.15-0.85c-1.11,0.63-1.49,2.04-0.85,3.15
		C165.8,81.52,167.21,81.9,168.31,81.27z"/>
	
		<radialGradient id="SVGID_00000127746006430017252230000011096325279702710421_" cx="191.507" cy="468.6169" r="738.5009" gradientUnits="userSpaceOnUse">
		<stop  offset="0.2672" style="stop-color:#00FFFF"/>
		<stop  offset="1" style="stop-color:#0000FF"/>
	</radialGradient>
	<path style="fill:url(#SVGID_00000127746006430017252230000011096325279702710421_);" d="M151.85,80.72
		c0.7-0.4,0.94-1.29,0.54-1.99c-0.4-0.7-1.29-0.94-1.99-0.54c-0.7,0.4-0.94,1.29-0.54,1.99C150.26,80.88,151.15,81.12,151.85,80.72z
		"/>
	
		<radialGradient id="SVGID_00000147919490941545880390000003309514705132953528_" cx="179.8484" cy="475.2983" r="738.5009" gradientUnits="userSpaceOnUse">
		<stop  offset="0.2672" style="stop-color:#00FFFF"/>
		<stop  offset="1" style="stop-color:#0000FF"/>
	</radialGradient>
	<path style="fill:url(#SVGID_00000147919490941545880390000003309514705132953528_);" d="M171.35,159.75
		c-1.94-1.96-5.1-1.97-7.06-0.03c-1.96,1.94-1.97,5.1-0.03,7.06c1.94,1.96,5.1,1.97,7.06,0.03
		C173.27,164.87,173.29,161.71,171.35,159.75z"/>
	
		<radialGradient id="SVGID_00000074416588327942371080000017020933878160990605_" cx="176.9321" cy="468.6471" r="738.5009" gradientUnits="userSpaceOnUse">
		<stop  offset="0.2672" style="stop-color:#00FFFF"/>
		<stop  offset="1" style="stop-color:#0000FF"/>
	</radialGradient>
	<path style="fill:url(#SVGID_00000074416588327942371080000017020933878160990605_);" d="M151.33,142.92
		c-1.52,1.5-1.53,3.95-0.03,5.47c1.5,1.52,3.95,1.53,5.47,0.03c1.52-1.5,1.53-3.95,0.03-5.47
		C155.29,141.43,152.84,141.42,151.33,142.92z"/>
	
		<radialGradient id="SVGID_00000130634106770296549030000011480528923544495293_" cx="189.2112" cy="463.7355" r="738.5009" gradientUnits="userSpaceOnUse">
		<stop  offset="0.2672" style="stop-color:#00FFFF"/>
		<stop  offset="1" style="stop-color:#0000FF"/>
	</radialGradient>
	<path style="fill:url(#SVGID_00000130634106770296549030000011480528923544495293_);" d="M157.42,131.77
		c1.33-1.32,1.34-3.47,0.02-4.8c-1.32-1.33-3.47-1.34-4.8-0.02c-1.33,1.32-1.34,3.47-0.02,4.8
		C153.94,133.08,156.09,133.09,157.42,131.77z"/>
	
		<radialGradient id="SVGID_00000163785890634544678110000004513750398790407082_" cx="183.8902" cy="469.8751" r="738.5009" gradientUnits="userSpaceOnUse">
		<stop  offset="0.2672" style="stop-color:#00FFFF"/>
		<stop  offset="1" style="stop-color:#0000FF"/>
	</radialGradient>
	<path style="fill:url(#SVGID_00000163785890634544678110000004513750398790407082_);" d="M140.47,126.17
		c1.21-1.2,1.22-3.16,0.02-4.38c-1.2-1.21-3.16-1.22-4.38-0.02c-1.21,1.2-1.22,3.16-0.02,4.38
		C137.3,127.36,139.26,127.37,140.47,126.17z"/>
	
		<radialGradient id="SVGID_00000121982979465696587570000012348560753960896411_" cx="181.8437" cy="479.6983" r="738.5009" gradientUnits="userSpaceOnUse">
		<stop  offset="0.2672" style="stop-color:#00FFFF"/>
		<stop  offset="1" style="stop-color:#0000FF"/>
	</radialGradient>
	<path style="fill:url(#SVGID_00000121982979465696587570000012348560753960896411_);" d="M126.8,124.26
		c0.91-0.9,0.91-2.36,0.02-3.26c-0.9-0.91-2.36-0.91-3.26-0.02c-0.9,0.9-0.91,2.36-0.01,3.26
		C124.43,125.15,125.89,125.15,126.8,124.26z"/>
	
		<radialGradient id="SVGID_00000128455572950421616580000014331065090301057465_" cx="190.4157" cy="463.5072" r="738.5009" gradientUnits="userSpaceOnUse">
		<stop  offset="0.2672" style="stop-color:#00FFFF"/>
		<stop  offset="1" style="stop-color:#0000FF"/>
	</radialGradient>
	<path style="fill:url(#SVGID_00000128455572950421616580000014331065090301057465_);" d="M121.69,94.25
		c-0.57,0.57-0.58,1.49-0.01,2.06c0.57,0.57,1.49,0.58,2.06,0.01c0.57-0.57,0.58-1.49,0.01-2.06
		C123.18,93.69,122.26,93.69,121.69,94.25z"/>
	
		<radialGradient id="SVGID_00000024711505006449020990000017911664635796681137_" cx="181.0251" cy="470.6937" r="738.5009" gradientUnits="userSpaceOnUse">
		<stop  offset="0.2672" style="stop-color:#00FFFF"/>
		<stop  offset="1" style="stop-color:#0000FF"/>
	</radialGradient>
	<path style="fill:url(#SVGID_00000024711505006449020990000017911664635796681137_);" d="M145.31,165.27
		c1.84,1.08,4.21,0.46,5.29-1.38c1.08-1.84,0.46-4.21-1.38-5.29c-1.84-1.08-4.21-0.46-5.29,1.38
		C142.85,161.82,143.47,164.19,145.31,165.27z"/>
	
		<radialGradient id="SVGID_00000183215748518050857570000013598033464637544842_" cx="183.8902" cy="460.8704" r="738.5009" gradientUnits="userSpaceOnUse">
		<stop  offset="0.2672" style="stop-color:#00FFFF"/>
		<stop  offset="1" style="stop-color:#0000FF"/>
	</radialGradient>
	<path style="fill:url(#SVGID_00000183215748518050857570000013598033464637544842_);" d="M134.56,146.93
		c1.62,0.95,3.7,0.4,4.64-1.21c0.95-1.62,0.4-3.7-1.21-4.64c-1.62-0.95-3.7-0.4-4.64,1.21C132.4,143.9,132.95,145.98,134.56,146.93z
		"/>
	
		<radialGradient id="SVGID_00000020372005503438805910000013904009873017596056_" cx="177.5031" cy="473.5724" r="738.5009" gradientUnits="userSpaceOnUse">
		<stop  offset="0.2672" style="stop-color:#00FFFF"/>
		<stop  offset="1" style="stop-color:#0000FF"/>
	</radialGradient>
	<path style="fill:url(#SVGID_00000020372005503438805910000013904009873017596056_);" d="M114.33,151.17
		c1.48,0.86,3.37,0.37,4.24-1.11c0.86-1.48,0.37-3.37-1.11-4.24c-1.48-0.86-3.37-0.37-4.24,1.11
		C112.36,148.41,112.85,150.31,114.33,151.17z"/>
	
		<radialGradient id="SVGID_00000103253490907902557040000001430043861027483534_" cx="185.1182" cy="459.2332" r="738.5009" gradientUnits="userSpaceOnUse">
		<stop  offset="0.2672" style="stop-color:#00FFFF"/>
		<stop  offset="1" style="stop-color:#0000FF"/>
	</radialGradient>
	<path style="fill:url(#SVGID_00000103253490907902557040000001430043861027483534_);" d="M108.76,128.2
		c1.1,0.64,2.51,0.28,3.16-0.82c0.64-1.1,0.27-2.51-0.83-3.16c-1.1-0.64-2.51-0.27-3.16,0.83
		C107.3,126.14,107.67,127.56,108.76,128.2z"/>
	
		<radialGradient id="SVGID_00000170964793366490652870000007133724666154392489_" cx="183.8902" cy="469.8751" r="738.5009" gradientUnits="userSpaceOnUse">
		<stop  offset="0.2672" style="stop-color:#00FFFF"/>
		<stop  offset="1" style="stop-color:#0000FF"/>
	</radialGradient>
	<path style="fill:url(#SVGID_00000170964793366490652870000007133724666154392489_);" d="M94.44,130.19c0.7,0.41,1.59,0.17,2-0.52
		c0.41-0.69,0.17-1.59-0.52-2c-0.69-0.41-1.59-0.17-2,0.52C93.51,128.89,93.75,129.78,94.44,130.19z"/>
	
		<radialGradient id="SVGID_00000136388014777701465540000016468627753346480270_" cx="199.0274" cy="449.9906" r="738.5009" gradientUnits="userSpaceOnUse">
		<stop  offset="0.2672" style="stop-color:#00FFFF"/>
		<stop  offset="1" style="stop-color:#0000FF"/>
	</radialGradient>
	<path style="fill:url(#SVGID_00000136388014777701465540000016468627753346480270_);" d="M109.58,110.31c0.7,0.41,1.59,0.17,2-0.52
		c0.41-0.69,0.17-1.59-0.52-2c-0.69-0.41-1.59-0.17-2,0.52C108.65,109,108.88,109.9,109.58,110.31z"/>
	
		<radialGradient id="SVGID_00000095341053908948537260000002877119791610853052_" cx="186.4578" cy="502.634" r="738.5009" gradientUnits="userSpaceOnUse">
		<stop  offset="0.2672" style="stop-color:#00FFFF"/>
		<stop  offset="1" style="stop-color:#0000FF"/>
	</radialGradient>
	<path style="fill:url(#SVGID_00000095341053908948537260000002877119791610853052_);" d="M159.35,219.32
		c2.66,0.73,5.41-0.82,6.14-3.48c0.73-2.66-0.82-5.41-3.48-6.14c-2.66-0.73-5.41,0.82-6.14,3.48
		C155.14,215.84,156.7,218.59,159.35,219.32z"/>
	
		<radialGradient id="SVGID_00000004543646497289438820000013548038937948099245_" cx="183.8902" cy="469.8751" r="738.5009" gradientUnits="userSpaceOnUse">
		<stop  offset="0.2672" style="stop-color:#00FFFF"/>
		<stop  offset="1" style="stop-color:#0000FF"/>
	</radialGradient>
	<path style="fill:url(#SVGID_00000004543646497289438820000013548038937948099245_);" d="M139.55,176.62
		c-0.57,2.06,0.64,4.19,2.7,4.76c2.06,0.57,4.19-0.64,4.76-2.7c0.57-2.06-0.64-4.19-2.7-4.76
		C142.25,173.36,140.12,174.57,139.55,176.62z"/>
	
		<radialGradient id="SVGID_00000067197283886245366800000015186207704405821628_" cx="183.8902" cy="469.8751" r="738.5009" gradientUnits="userSpaceOnUse">
		<stop  offset="0.2672" style="stop-color:#00FFFF"/>
		<stop  offset="1" style="stop-color:#0000FF"/>
	</radialGradient>
	<path style="fill:url(#SVGID_00000067197283886245366800000015186207704405821628_);" d="M128.71,170.11
		c-1.81-0.5-3.68,0.56-4.17,2.37s0.56,3.68,2.37,4.17c1.81,0.5,3.68-0.56,4.17-2.37C131.57,172.48,130.51,170.61,128.71,170.11z"/>
	
		<radialGradient id="SVGID_00000174603593314120658860000004000972581382678711_" cx="187.1647" cy="465.3727" r="738.5009" gradientUnits="userSpaceOnUse">
		<stop  offset="0.2672" style="stop-color:#00FFFF"/>
		<stop  offset="1" style="stop-color:#0000FF"/>
	</radialGradient>
	<path style="fill:url(#SVGID_00000174603593314120658860000004000972581382678711_);" d="M112.46,163.73
		c-0.46,1.65,0.51,3.35,2.16,3.81c1.65,0.46,3.35-0.51,3.81-2.16c0.45-1.65-0.51-3.35-2.16-3.81
		C114.62,161.11,112.91,162.08,112.46,163.73z"/>
	
		<radialGradient id="SVGID_00000033344873252926868530000000921631467304791998_" cx="185.0495" cy="461.6809" r="738.5009" gradientUnits="userSpaceOnUse">
		<stop  offset="0.2672" style="stop-color:#00FFFF"/>
		<stop  offset="1" style="stop-color:#0000FF"/>
	</radialGradient>
	<path style="fill:url(#SVGID_00000033344873252926868530000000921631467304791998_);" d="M98.77,154.45
		c-1.23-0.34-2.5,0.38-2.84,1.61c-0.34,1.23,0.38,2.5,1.61,2.84c1.23,0.34,2.5-0.38,2.84-1.61
		C100.72,156.06,100,154.79,98.77,154.45z"/>
	
		<radialGradient id="SVGID_00000168833187004004181010000007911889338265833601_" cx="183.8902" cy="469.8751" r="738.5009" gradientUnits="userSpaceOnUse">
		<stop  offset="0.2672" style="stop-color:#00FFFF"/>
		<stop  offset="1" style="stop-color:#0000FF"/>
	</radialGradient>
	<path style="fill:url(#SVGID_00000168833187004004181010000007911889338265833601_);" d="M82.28,159.28
		c-0.78-0.21-1.58,0.24-1.8,1.02c-0.21,0.78,0.24,1.58,1.02,1.79c0.78,0.21,1.58-0.24,1.79-1.02
		C83.51,160.3,83.06,159.5,82.28,159.28z"/>
	
		<radialGradient id="SVGID_00000143595105553573949600000007586572178646670515_" cx="185.2183" cy="464.9711" r="738.5009" gradientUnits="userSpaceOnUse">
		<stop  offset="0.2672" style="stop-color:#00FFFF"/>
		<stop  offset="1" style="stop-color:#0000FF"/>
	</radialGradient>
	<path style="fill:url(#SVGID_00000143595105553573949600000007586572178646670515_);" d="M152.64,190.59
		c-0.03,2.76,2.19,5.01,4.94,5.04c2.76,0.03,5.01-2.19,5.04-4.94c0.03-2.76-2.19-5.01-4.94-5.04
		C154.92,185.62,152.66,187.84,152.64,190.59z"/>
	
		<radialGradient id="SVGID_00000100374949344005733470000014512061891584932752_" cx="176.9321" cy="467.0099" r="738.5009" gradientUnits="userSpaceOnUse">
		<stop  offset="0.2672" style="stop-color:#00FFFF"/>
		<stop  offset="1" style="stop-color:#0000FF"/>
	</radialGradient>
	<path style="fill:url(#SVGID_00000100374949344005733470000014512061891584932752_);" d="M130.08,192.5
		c-0.02,2.14,1.69,3.88,3.83,3.9c2.14,0.02,3.88-1.69,3.9-3.83c0.02-2.13-1.7-3.88-3.83-3.9
		C131.85,188.65,130.1,190.36,130.08,192.5z"/>
	
		<radialGradient id="SVGID_00000170986210187420771970000007762026085678847875_" cx="178.5693" cy="473.5588" r="738.5009" gradientUnits="userSpaceOnUse">
		<stop  offset="0.2672" style="stop-color:#00FFFF"/>
		<stop  offset="1" style="stop-color:#0000FF"/>
	</radialGradient>
	<path style="fill:url(#SVGID_00000170986210187420771970000007762026085678847875_);" d="M119.5,202.32
		c1.87,0.02,3.41-1.49,3.43-3.36c0.02-1.87-1.49-3.41-3.36-3.42c-1.87-0.02-3.41,1.49-3.43,3.36
		C116.12,200.77,117.63,202.31,119.5,202.32z"/>
	
		<radialGradient id="SVGID_00000117644636488114126560000013195879722732594847_" cx="183.4809" cy="461.689" r="738.5009" gradientUnits="userSpaceOnUse">
		<stop  offset="0.2672" style="stop-color:#00FFFF"/>
		<stop  offset="1" style="stop-color:#0000FF"/>
	</radialGradient>
	<path style="fill:url(#SVGID_00000117644636488114126560000013195879722732594847_);" d="M108.19,190.01
		c1.71,0.02,3.11-1.36,3.12-3.07c0.02-1.71-1.36-3.11-3.07-3.13c-1.71-0.02-3.11,1.36-3.13,3.07
		C105.11,188.59,106.48,189.99,108.19,190.01z"/>
	
		<radialGradient id="SVGID_00000028303586332144050000000014879507900521322129_" cx="184.1838" cy="462.5069" r="738.5009" gradientUnits="userSpaceOnUse">
		<stop  offset="0.2672" style="stop-color:#00FFFF"/>
		<stop  offset="1" style="stop-color:#0000FF"/>
	</radialGradient>
	<path style="fill:url(#SVGID_00000028303586332144050000000014879507900521322129_);" d="M95.5,187.6
		c0.01-1.27-1.01-2.32-2.29-2.33c-1.27-0.01-2.32,1.01-2.33,2.29s1.01,2.32,2.29,2.33C94.45,189.9,95.49,188.88,95.5,187.6z"/>
	
		<radialGradient id="SVGID_00000019671680016650347490000002807080319382094525_" cx="183.8902" cy="469.8751" r="738.5009" gradientUnits="userSpaceOnUse">
		<stop  offset="0.2672" style="stop-color:#00FFFF"/>
		<stop  offset="1" style="stop-color:#0000FF"/>
	</radialGradient>
	<path style="fill:url(#SVGID_00000019671680016650347490000002807080319382094525_);" d="M77.24,193.34
		c-0.81-0.01-1.46,0.64-1.47,1.45c-0.01,0.81,0.64,1.46,1.44,1.47c0.81,0.01,1.47-0.64,1.47-1.45
		C78.69,194.01,78.05,193.35,77.24,193.34z"/>
	
		<radialGradient id="SVGID_00000142159239530965257480000003308138071665838220_" cx="190.473" cy="484.3549" r="738.5009" gradientUnits="userSpaceOnUse">
		<stop  offset="0.2672" style="stop-color:#00FFFF"/>
		<stop  offset="1" style="stop-color:#0000FF"/>
	</radialGradient>
	<path style="fill:url(#SVGID_00000142159239530965257480000003308138071665838220_);" d="M83.82,207.82
		c-0.81-0.01-1.46,0.64-1.47,1.45c-0.01,0.81,0.64,1.46,1.44,1.47c0.81,0.01,1.47-0.64,1.47-1.45
		C85.28,208.49,84.63,207.83,83.82,207.82z"/>
	
		<radialGradient id="SVGID_00000010277707636645958910000007226392392120017537_" cx="202.8039" cy="447.1357" r="738.5009" gradientUnits="userSpaceOnUse">
		<stop  offset="0.2672" style="stop-color:#00FFFF"/>
		<stop  offset="1" style="stop-color:#0000FF"/>
	</radialGradient>
	<path style="fill:url(#SVGID_00000010277707636645958910000007226392392120017537_);" d="M96.15,170.6
		c-0.81-0.01-1.46,0.64-1.47,1.45c-0.01,0.81,0.64,1.46,1.44,1.47c0.81,0.01,1.47-0.64,1.47-1.45
		C97.61,171.27,96.96,170.61,96.15,170.6z"/>
	
		<radialGradient id="SVGID_00000139264844174424718030000000654258947531218587_" cx="183.4809" cy="463.3262" r="738.5009" gradientUnits="userSpaceOnUse">
		<stop  offset="0.2672" style="stop-color:#00FFFF"/>
		<stop  offset="1" style="stop-color:#0000FF"/>
	</radialGradient>
	<path style="fill:url(#SVGID_00000139264844174424718030000000654258947531218587_);" d="M146.52,205.65
		c-0.53-2.07-2.64-3.32-4.71-2.79c-2.07,0.53-3.32,2.64-2.79,4.71c0.53,2.07,2.64,3.32,4.71,2.79
		C145.8,209.82,147.05,207.72,146.52,205.65z"/>
	
		<radialGradient id="SVGID_00000131351725802364551240000007208908031502721675_" cx="176.5228" cy="479.6983" r="738.5009" gradientUnits="userSpaceOnUse">
		<stop  offset="0.2672" style="stop-color:#00FFFF"/>
		<stop  offset="1" style="stop-color:#0000FF"/>
	</radialGradient>
	<path style="fill:url(#SVGID_00000131351725802364551240000007208908031502721675_);" d="M119.43,223.68
		c-1.82,0.47-2.91,2.31-2.44,4.13c0.47,1.82,2.31,2.91,4.13,2.44c1.82-0.47,2.91-2.31,2.44-4.13
		C123.09,224.3,121.24,223.21,119.43,223.68z"/>
	
		<radialGradient id="SVGID_00000062872865508025479720000008593883919692973213_" cx="186.3461" cy="466.1913" r="738.5009" gradientUnits="userSpaceOnUse">
		<stop  offset="0.2672" style="stop-color:#00FFFF"/>
		<stop  offset="1" style="stop-color:#0000FF"/>
	</radialGradient>
	<path style="fill:url(#SVGID_00000062872865508025479720000008593883919692973213_);" d="M129.25,210.17
		c-1.82,0.47-2.91,2.31-2.44,4.13c0.47,1.82,2.31,2.91,4.13,2.44c1.82-0.47,2.91-2.31,2.44-4.13
		C132.91,210.8,131.06,209.7,129.25,210.17z"/>
	
		<radialGradient id="SVGID_00000044858202201200975240000010915601354991383424_" cx="173.6577" cy="460.4611" r="738.5009" gradientUnits="userSpaceOnUse">
		<stop  offset="0.2672" style="stop-color:#00FFFF"/>
		<stop  offset="1" style="stop-color:#0000FF"/>
	</radialGradient>
	<path style="fill:url(#SVGID_00000044858202201200975240000010915601354991383424_);" d="M104.68,210.98
		c-0.42-1.66-2.11-2.65-3.77-2.23c-1.66,0.42-2.65,2.11-2.23,3.77c0.42,1.66,2.11,2.65,3.77,2.23
		C104.11,214.33,105.11,212.64,104.68,210.98z"/>
	
		<radialGradient id="SVGID_00000043452551029279356230000006503480199126028173_" cx="185.1182" cy="475.196" r="738.5009" gradientUnits="userSpaceOnUse">
		<stop  offset="0.2672" style="stop-color:#00FFFF"/>
		<stop  offset="1" style="stop-color:#0000FF"/>
	</radialGradient>
	<path style="fill:url(#SVGID_00000043452551029279356230000006503480199126028173_);" d="M97.33,228.16
		c-1.23,0.32-1.98,1.57-1.66,2.81c0.32,1.23,1.57,1.98,2.81,1.66c1.23-0.32,1.98-1.57,1.66-2.81
		C99.82,228.59,98.57,227.84,97.33,228.16z"/>
	
		<radialGradient id="SVGID_00000049931238017121261480000015471021388392347810_" cx="183.8902" cy="469.8751" r="738.5009" gradientUnits="userSpaceOnUse">
		<stop  offset="0.2672" style="stop-color:#00FFFF"/>
		<stop  offset="1" style="stop-color:#0000FF"/>
	</radialGradient>
	<path style="fill:url(#SVGID_00000049931238017121261480000015471021388392347810_);" d="M81.13,227.55
		c-0.78,0.2-1.25,0.99-1.05,1.78c0.2,0.78,1,1.25,1.78,1.05c0.78-0.2,1.25-1,1.05-1.78C82.71,227.82,81.91,227.35,81.13,227.55z"/>
	
		<radialGradient id="SVGID_00000135690698057131416090000009198191700165219762_" cx="181.4344" cy="462.0983" r="738.5009" gradientUnits="userSpaceOnUse">
		<stop  offset="0.2672" style="stop-color:#00FFFF"/>
		<stop  offset="1" style="stop-color:#0000FF"/>
	</radialGradient>
	<path style="fill:url(#SVGID_00000135690698057131416090000009198191700165219762_);" d="M145.6,218.58
		c-1.86,1.04-2.53,3.4-1.48,5.26c1.04,1.86,3.4,2.53,5.26,1.48c1.86-1.04,2.53-3.4,1.48-5.26
		C149.82,218.2,147.47,217.53,145.6,218.58z"/>
	
		<radialGradient id="SVGID_00000052784312331334269860000010887216029251197358_" cx="183.8902" cy="464.5541" r="738.5009" gradientUnits="userSpaceOnUse">
		<stop  offset="0.2672" style="stop-color:#00FFFF"/>
		<stop  offset="1" style="stop-color:#0000FF"/>
	</radialGradient>
	<path style="fill:url(#SVGID_00000052784312331334269860000010887216029251197358_);" d="M137.61,235.22
		c1.63-0.92,2.22-2.98,1.3-4.62c-0.92-1.63-2.98-2.22-4.62-1.3c-1.63,0.92-2.22,2.98-1.3,4.62
		C133.91,235.55,135.98,236.13,137.61,235.22z"/>
	
		<radialGradient id="SVGID_00000070113872253141022350000005791712123669022910_" cx="187.1647" cy="476.0146" r="738.5009" gradientUnits="userSpaceOnUse">
		<stop  offset="0.2672" style="stop-color:#00FFFF"/>
		<stop  offset="1" style="stop-color:#0000FF"/>
	</radialGradient>
	<path style="fill:url(#SVGID_00000070113872253141022350000005791712123669022910_);" d="M127.78,250.14
		c-0.84-1.49-2.72-2.02-4.22-1.19c-1.49,0.84-2.02,2.72-1.19,4.22c0.84,1.49,2.72,2.02,4.21,1.19
		C128.08,253.52,128.61,251.63,127.78,250.14z"/>
	
		<radialGradient id="SVGID_00000114044892412714374290000011806138599410347920_" cx="188.3926" cy="478.4704" r="738.5009" gradientUnits="userSpaceOnUse">
		<stop  offset="0.2672" style="stop-color:#00FFFF"/>
		<stop  offset="1" style="stop-color:#0000FF"/>
	</radialGradient>
	<path style="fill:url(#SVGID_00000114044892412714374290000011806138599410347920_);" d="M111.45,259.79
		c-1.11,0.62-1.51,2.03-0.88,3.14c0.62,1.11,2.03,1.51,3.14,0.88c1.11-0.62,1.51-2.03,0.88-3.14
		C113.97,259.57,112.56,259.17,111.45,259.79z"/>
	
		<radialGradient id="SVGID_00000111167515644092031230000017672890246658936709_" cx="184.2995" cy="459.6425" r="738.5009" gradientUnits="userSpaceOnUse">
		<stop  offset="0.2672" style="stop-color:#00FFFF"/>
		<stop  offset="1" style="stop-color:#0000FF"/>
	</radialGradient>
	<path style="fill:url(#SVGID_00000111167515644092031230000017672890246658936709_);" d="M107.36,240.96
		c-1.11,0.62-1.51,2.03-0.88,3.14c0.62,1.11,2.03,1.51,3.14,0.88c1.11-0.62,1.51-2.03,0.88-3.14
		C109.88,240.74,108.47,240.34,107.36,240.96z"/>
	
		<radialGradient id="SVGID_00000016774099769490132070000016835274258373822892_" cx="183.8902" cy="469.8751" r="738.5009" gradientUnits="userSpaceOnUse">
		<stop  offset="0.2672" style="stop-color:#00FFFF"/>
		<stop  offset="1" style="stop-color:#0000FF"/>
	</radialGradient>
	<path style="fill:url(#SVGID_00000016774099769490132070000016835274258373822892_);" d="M93.69,259.6
		c-0.7,0.39-0.95,1.28-0.56,1.99c0.39,0.7,1.28,0.95,1.99,0.56c0.7-0.39,0.95-1.28,0.56-1.99C95.29,259.46,94.4,259.21,93.69,259.6z
		"/>
	
		<radialGradient id="SVGID_00000079453554048637916260000007257255506972236725_" cx="188.3541" cy="472.8753" r="738.5009" gradientUnits="userSpaceOnUse">
		<stop  offset="0.2672" style="stop-color:#00FFFF"/>
		<stop  offset="1" style="stop-color:#0000FF"/>
	</radialGradient>
	<path style="fill:url(#SVGID_00000079453554048637916260000007257255506972236725_);" d="M179.74,239.85
		c1.98-1.92,2.02-5.08,0.1-7.06c-1.92-1.98-5.08-2.02-7.06-0.1c-1.98,1.92-2.02,5.08-0.1,7.06
		C174.6,241.72,177.76,241.77,179.74,239.85z"/>
	
		<radialGradient id="SVGID_00000021113266394705784130000002081816162175914381_" cx="178.9786" cy="465.782" r="738.5009" gradientUnits="userSpaceOnUse">
		<stop  offset="0.2672" style="stop-color:#00FFFF"/>
		<stop  offset="1" style="stop-color:#0000FF"/>
	</radialGradient>
	<path style="fill:url(#SVGID_00000021113266394705784130000002081816162175914381_);" d="M153.15,237.14
		c-1.53,1.49-1.57,3.94-0.08,5.47c1.49,1.53,3.94,1.57,5.47,0.08c1.53-1.49,1.57-3.94,0.08-5.47
		C157.13,235.68,154.68,235.65,153.15,237.14z"/>
	
		<radialGradient id="SVGID_00000086663952106208562120000018345098285747467950_" cx="174.8856" cy="465.782" r="738.5009" gradientUnits="userSpaceOnUse">
		<stop  offset="0.2672" style="stop-color:#00FFFF"/>
		<stop  offset="1" style="stop-color:#0000FF"/>
	</radialGradient>
	<path style="fill:url(#SVGID_00000086663952106208562120000018345098285747467950_);" d="M137.88,248.66
		c-1.34,1.31-1.37,3.45-0.07,4.8c1.31,1.34,3.45,1.37,4.8,0.07c1.34-1.31,1.37-3.46,0.07-4.8
		C141.37,247.39,139.22,247.36,137.88,248.66z"/>
	
		<radialGradient id="SVGID_00000132797397426579871710000012044226016741625742_" cx="186.9496" cy="471.1174" r="738.5009" gradientUnits="userSpaceOnUse">
		<stop  offset="0.2672" style="stop-color:#00FFFF"/>
		<stop  offset="1" style="stop-color:#0000FF"/>
	</radialGradient>
	<path style="fill:url(#SVGID_00000132797397426579871710000012044226016741625742_);" d="M138.52,265.52
		c-1.23,1.19-1.25,3.15-0.06,4.38c1.19,1.23,3.15,1.25,4.38,0.06c1.23-1.19,1.25-3.15,0.06-4.38
		C141.7,264.36,139.74,264.33,138.52,265.52z"/>
	
		<radialGradient id="SVGID_00000045587636663366674400000006156017558343425184_" cx="187.0556" cy="472.9038" r="738.5009" gradientUnits="userSpaceOnUse">
		<stop  offset="0.2672" style="stop-color:#00FFFF"/>
		<stop  offset="1" style="stop-color:#0000FF"/>
	</radialGradient>
	<path style="fill:url(#SVGID_00000045587636663366674400000006156017558343425184_);" d="M127.89,278.84
		c-0.91,0.89-0.93,2.35-0.05,3.26c0.89,0.91,2.35,0.93,3.26,0.05c0.91-0.89,0.93-2.35,0.05-3.26
		C130.27,277.97,128.81,277.95,127.89,278.84z"/>
	
		<radialGradient id="SVGID_00000134940697775529745460000017422082064280031361_" cx="183.8902" cy="469.8751" r="738.5009" gradientUnits="userSpaceOnUse">
		<stop  offset="0.2672" style="stop-color:#00FFFF"/>
		<stop  offset="1" style="stop-color:#0000FF"/>
	</radialGradient>
	<path style="fill:url(#SVGID_00000134940697775529745460000017422082064280031361_);" d="M114.08,287.35
		c-0.58,0.56-0.59,1.48-0.03,2.06c0.56,0.58,1.49,0.59,2.06,0.03c0.58-0.56,0.59-1.49,0.03-2.06
		C115.58,286.8,114.66,286.78,114.08,287.35z"/>
	
		<radialGradient id="SVGID_00000079488456624357447130000003730397966232075949_" cx="167.5181" cy="473.1495" r="738.5009" gradientUnits="userSpaceOnUse">
		<stop  offset="0.2672" style="stop-color:#00FFFF"/>
		<stop  offset="1" style="stop-color:#0000FF"/>
	</radialGradient>
	<path style="fill:url(#SVGID_00000079488456624357447130000003730397966232075949_);" d="M161.82,260.27
		c1.1-1.83,0.5-4.21-1.33-5.3c-1.83-1.1-4.21-0.5-5.3,1.33c-1.1,1.83-0.5,4.21,1.33,5.3C158.35,262.7,160.72,262.11,161.82,260.27z"
		/>
	
		<radialGradient id="SVGID_00000051381790452624286980000002513289710098980765_" cx="182.253" cy="473.1495" r="738.5009" gradientUnits="userSpaceOnUse">
		<stop  offset="0.2672" style="stop-color:#00FFFF"/>
		<stop  offset="1" style="stop-color:#0000FF"/>
	</radialGradient>
	<path style="fill:url(#SVGID_00000051381790452624286980000002513289710098980765_);" d="M166.74,269.15
		c-1.61-0.96-3.69-0.44-4.65,1.17c-0.96,1.61-0.44,3.69,1.17,4.65s3.69,0.44,4.65-1.17C168.87,272.19,168.34,270.11,166.74,269.15z"
		/>
	
		<radialGradient id="SVGID_00000054955929807372042820000000085311719842971804_" cx="190.4391" cy="478.0611" r="738.5009" gradientUnits="userSpaceOnUse">
		<stop  offset="0.2672" style="stop-color:#00FFFF"/>
		<stop  offset="1" style="stop-color:#0000FF"/>
	</radialGradient>
	<path style="fill:url(#SVGID_00000054955929807372042820000000085311719842971804_);" d="M166.44,288.24
		c-1.47-0.88-3.37-0.4-4.25,1.07c-0.88,1.47-0.4,3.37,1.07,4.25c1.47,0.88,3.37,0.4,4.25-1.07
		C168.38,291.02,167.9,289.12,166.44,288.24z"/>
	
		<radialGradient id="SVGID_00000002371188215282155460000011519139451287586214_" cx="175.7042" cy="465.3727" r="738.5009" gradientUnits="userSpaceOnUse">
		<stop  offset="0.2672" style="stop-color:#00FFFF"/>
		<stop  offset="1" style="stop-color:#0000FF"/>
	</radialGradient>
	<path style="fill:url(#SVGID_00000002371188215282155460000011519139451287586214_);" d="M143.22,289.73
		c-1.09-0.65-2.51-0.3-3.17,0.79c-0.65,1.09-0.3,2.51,0.8,3.17c1.09,0.65,2.51,0.3,3.17-0.8
		C144.67,291.8,144.31,290.38,143.22,289.73z"/>
	
		<radialGradient id="SVGID_00000045606170433064791350000003255814241924978089_" cx="185.1182" cy="452.275" r="738.5009" gradientUnits="userSpaceOnUse">
		<stop  offset="0.2672" style="stop-color:#00FFFF"/>
		<stop  offset="1" style="stop-color:#0000FF"/>
	</radialGradient>
	<path style="fill:url(#SVGID_00000045606170433064791350000003255814241924978089_);" d="M152.63,276.63
		c-1.09-0.65-2.51-0.3-3.17,0.79c-0.65,1.09-0.3,2.51,0.8,3.17c1.09,0.65,2.51,0.3,3.17-0.8
		C154.08,278.7,153.73,277.28,152.63,276.63z"/>
	
		<radialGradient id="SVGID_00000095308446753848840630000010637287733198308527_" cx="183.8902" cy="469.8751" r="738.5009" gradientUnits="userSpaceOnUse">
		<stop  offset="0.2672" style="stop-color:#00FFFF"/>
		<stop  offset="1" style="stop-color:#0000FF"/>
	</radialGradient>
	<path style="fill:url(#SVGID_00000095308446753848840630000010637287733198308527_);" d="M142.92,308.41
		c-0.69-0.41-1.59-0.19-2,0.5c-0.41,0.69-0.19,1.59,0.5,2c0.69,0.41,1.59,0.19,2-0.5C143.84,309.72,143.61,308.82,142.92,308.41z"/>
	
		<radialGradient id="SVGID_00000070833002373392397970000001815767862135189890_" cx="196.9078" cy="457.4868" r="738.5009" gradientUnits="userSpaceOnUse">
		<stop  offset="0.2672" style="stop-color:#00FFFF"/>
		<stop  offset="1" style="stop-color:#0000FF"/>
	</radialGradient>
	<path style="fill:url(#SVGID_00000070833002373392397970000001815767862135189890_);" d="M155.94,296.02
		c-0.69-0.41-1.59-0.19-2,0.5c-0.41,0.69-0.19,1.59,0.5,2c0.69,0.41,1.59,0.19,2-0.5C156.85,297.33,156.63,296.43,155.94,296.02z"/>
	
		<radialGradient id="SVGID_00000067211723462956995430000006773079519702085762_" cx="183.1397" cy="472.2832" r="738.5009" gradientUnits="userSpaceOnUse">
		<stop  offset="0.2672" style="stop-color:#00FFFF"/>
		<stop  offset="1" style="stop-color:#0000FF"/>
	</radialGradient>
	<path style="fill:url(#SVGID_00000067211723462956995430000006773079519702085762_);" d="M196.21,244.83
		c-2.65-0.76-5.41,0.77-6.17,3.42c-0.76,2.65,0.77,5.41,3.42,6.17c2.65,0.76,5.41-0.77,6.17-3.42
		C200.39,248.35,198.86,245.59,196.21,244.83z"/>
	
		<radialGradient id="SVGID_00000067936601157912039800000002055876554812373919_" cx="170.1786" cy="464.3495" r="738.5009" gradientUnits="userSpaceOnUse">
		<stop  offset="0.2672" style="stop-color:#00FFFF"/>
		<stop  offset="1" style="stop-color:#0000FF"/>
	</radialGradient>
	<path style="fill:url(#SVGID_00000067936601157912039800000002055876554812373919_);" d="M178.7,252.78
		c-2.05-0.59-4.19,0.6-4.78,2.65c-0.59,2.05,0.6,4.19,2.65,4.78c2.05,0.59,4.19-0.6,4.78-2.65
		C181.94,255.51,180.75,253.37,178.7,252.78z"/>
	
		<radialGradient id="SVGID_00000078017762877946024460000006870653464251594150_" cx="188.2903" cy="480.3123" r="738.5009" gradientUnits="userSpaceOnUse">
		<stop  offset="0.2672" style="stop-color:#00FFFF"/>
		<stop  offset="1" style="stop-color:#0000FF"/>
	</radialGradient>
	<path style="fill:url(#SVGID_00000078017762877946024460000006870653464251594150_);" d="M196.81,268.74
		c-2.05-0.59-4.19,0.6-4.78,2.65c-0.59,2.05,0.6,4.19,2.65,4.78c2.05,0.59,4.19-0.6,4.78-2.65
		C200.05,271.47,198.86,269.33,196.81,268.74z"/>
	
		<radialGradient id="SVGID_00000181780565767010228360000016166464534757585842_" cx="177.7507" cy="470.2844" r="738.5009" gradientUnits="userSpaceOnUse">
		<stop  offset="0.2672" style="stop-color:#00FFFF"/>
		<stop  offset="1" style="stop-color:#0000FF"/>
	</radialGradient>
	<path style="fill:url(#SVGID_00000181780565767010228360000016166464534757585842_);" d="M181.72,274.6
		c-1.8-0.52-3.68,0.53-4.2,2.33s0.53,3.68,2.33,4.2c1.8,0.52,3.68-0.53,4.2-2.33C184.56,276.99,183.52,275.12,181.72,274.6z"/>
	
		<radialGradient id="SVGID_00000119834462889590267890000007795325407020331455_" cx="183.8902" cy="469.8751" r="738.5009" gradientUnits="userSpaceOnUse">
		<stop  offset="0.2672" style="stop-color:#00FFFF"/>
		<stop  offset="1" style="stop-color:#0000FF"/>
	</radialGradient>
	<path style="fill:url(#SVGID_00000119834462889590267890000007795325407020331455_);" d="M183.31,290.07
		c-1.64-0.47-3.36,0.48-3.83,2.12c-0.47,1.64,0.48,3.36,2.12,3.83c1.64,0.47,3.36-0.48,3.83-2.12
		C185.9,292.26,184.95,290.54,183.31,290.07z"/>
	
		<radialGradient id="SVGID_00000090973868742017866760000014363085022498480038_" cx="197.3972" cy="470.182" r="738.5009" gradientUnits="userSpaceOnUse">
		<stop  offset="0.2672" style="stop-color:#00FFFF"/>
		<stop  offset="1" style="stop-color:#0000FF"/>
	</radialGradient>
	<path style="fill:url(#SVGID_00000090973868742017866760000014363085022498480038_);" d="M196.82,290.38
		c-1.64-0.47-3.36,0.48-3.83,2.12c-0.47,1.64,0.48,3.36,2.12,3.83c1.64,0.47,3.36-0.48,3.83-2.12S198.46,290.85,196.82,290.38z"/>
	
		<radialGradient id="SVGID_00000127040649941530565620000015635685406738111412_" cx="174.4763" cy="470.6937" r="738.5009" gradientUnits="userSpaceOnUse">
		<stop  offset="0.2672" style="stop-color:#00FFFF"/>
		<stop  offset="1" style="stop-color:#0000FF"/>
	</radialGradient>
	<path style="fill:url(#SVGID_00000127040649941530565620000015635685406738111412_);" d="M169.34,306.77
		c-1.22-0.35-2.5,0.36-2.85,1.58c-0.35,1.23,0.36,2.5,1.58,2.85c1.23,0.35,2.5-0.36,2.85-1.58
		C171.28,308.4,170.57,307.13,169.34,306.77z"/>
	
		<radialGradient id="SVGID_00000127039866674895882450000002493678457943833481_" cx="195.0437" cy="470.0797" r="738.5009" gradientUnits="userSpaceOnUse">
		<stop  offset="0.2672" style="stop-color:#00FFFF"/>
		<stop  offset="1" style="stop-color:#0000FF"/>
	</radialGradient>
	<path style="fill:url(#SVGID_00000127039866674895882450000002493678457943833481_);" d="M189.91,306.16
		c-1.22-0.35-2.5,0.36-2.85,1.58c-0.35,1.23,0.36,2.5,1.58,2.85c1.23,0.35,2.5-0.36,2.85-1.58
		C191.85,307.79,191.14,306.51,189.91,306.16z"/>
	
		<radialGradient id="SVGID_00000132794710260631988520000011326367650025783220_" cx="178.4105" cy="469.399" r="738.5009" gradientUnits="userSpaceOnUse">
		<stop  offset="0.2672" style="stop-color:#00FFFF"/>
		<stop  offset="1" style="stop-color:#0000FF"/>
	</radialGradient>
	<path style="fill:url(#SVGID_00000132794710260631988520000011326367650025783220_);" d="M168.73,321.36
		c-0.78-0.22-1.58,0.23-1.8,1c-0.22,0.78,0.23,1.58,1,1.8c0.77,0.22,1.58-0.23,1.8-1C169.95,322.39,169.5,321.59,168.73,321.36z"/>
	
		<radialGradient id="SVGID_00000012446336981039818440000003825306191012325055_" cx="204.7647" cy="472.9448" r="738.5009" gradientUnits="userSpaceOnUse">
		<stop  offset="0.2672" style="stop-color:#00FFFF"/>
		<stop  offset="1" style="stop-color:#0000FF"/>
	</radialGradient>
	<path style="fill:url(#SVGID_00000012446336981039818440000003825306191012325055_);" d="M195.08,324.91
		c-0.78-0.22-1.58,0.23-1.8,1c-0.22,0.78,0.23,1.58,1,1.8c0.77,0.22,1.58-0.23,1.8-1C196.3,325.94,195.86,325.13,195.08,324.91z"/>
	
		<radialGradient id="SVGID_00000021104803160966073940000007228571388319010696_" cx="183.8902" cy="469.8751" r="738.5009" gradientUnits="userSpaceOnUse">
		<stop  offset="0.2672" style="stop-color:#00FFFF"/>
		<stop  offset="1" style="stop-color:#0000FF"/>
	</radialGradient>
	<path style="fill:url(#SVGID_00000021104803160966073940000007228571388319010696_);" d="M209.42,84.48v57.51
		c29.46,0.15,53.3,24.07,53.3,53.57c0,10.21-2.91,19.71-7.86,27.83v26.31h-26.62v26.29h-18.82v30.65c5.69-0.01,11.27-0.46,16.73-1.3
		v-14.79h26.62v7.18c5.59-2.39,10.93-5.25,16.01-8.48v-17.78h21.42c18.61-19.86,30.03-46.55,30.03-75.92
		C320.23,134.3,270.65,84.63,209.42,84.48z M299.53,243.5h-26.62v-26.62h26.62V243.5z"/>
</g>
</svg>
